<?xml version="1.0" encoding="UTF-8" standalone="no"?><svg xmlns="http://www.w3.org/2000/svg" xmlns:xlink="http://www.w3.org/1999/xlink" fill="#f5a900" height="673.5" preserveAspectRatio="xMidYMid meet" version="1" viewBox="258.5 40.0 673.5 673.5" width="673.5" zoomAndPan="magnify"><circle cx="595.28" cy="376.76" fill="none" r="296.32" stroke="#f5a900" stroke-miterlimit="10" stroke-width="0.5"/><circle cx="595.28" cy="376.76" fill="none" r="172.33" stroke="#f5a900" stroke-miterlimit="10" stroke-width="0.5"/><g id="change1_2"><path d="m595.28 40.005c-185.98 0-336.76 150.77-336.76 336.75 0 185.99 150.77 336.76 336.76 336.76s336.76-150.77 336.76-336.76c1e-3 -185.98-150.77-336.75-336.76-336.75zm0 654.9c-175.71 0-318.15-142.44-318.15-318.15s142.44-318.15 318.15-318.15 318.15 142.44 318.15 318.15-142.44 318.15-318.15 318.15z" fill="inherit"/></g><g id="change1_3"><path d="M591.05 57.648H599.3639999999999V80.505H591.05z" fill="inherit"/></g><g id="change1_4"><path d="M594.55 57.648H595.8729999999999V80.505H594.55z" fill="inherit"/></g><g id="change1_5"><path d="M562.38 59.33H563.697V82.187H562.38z" fill="inherit" transform="rotate(173.988 563.047 70.768)"/></g><g id="change1_6"><path d="M530.59 64.378H531.9100000000001V87.232H530.59z" fill="inherit" transform="rotate(168.098 531.243 75.792)"/></g><g id="change1_7"><path d="M499.48 72.721H500.79900000000004V95.578H499.48z" fill="inherit" transform="scale(-1) rotate(-17.98 -531.897 3161.072)"/></g><g id="change1_8"><path d="M469.41 84.285H470.73V107.139H469.41z" fill="inherit" transform="rotate(156.05 470.071 95.714)"/></g><g id="change1_9"><path d="M440.73 98.908H442.05V121.763H440.73z" fill="inherit" transform="scale(-1) rotate(-29.883 -413.47 1654.136)"/></g><g id="change1_10"><path d="M413.7 116.45H415.017V139.306H413.7z" fill="inherit" transform="rotate(143.979 414.362 127.872)"/></g><g id="change1_11"><path d="M388.69 136.72H390.007V159.574H388.69z" fill="inherit" transform="scale(-1) rotate(-41.98 -386.136 1014.776)"/></g><g id="change1_12"><path d="M365.93 159.51H367.247V182.362H365.93z" fill="inherit" transform="scale(-1) rotate(-48.008 -383.884 823.254)"/></g><g id="change1_13"><path d="M345.65 184.54H346.967V207.396H345.65z" fill="inherit" transform="scale(-1) rotate(-54.159 -383.31 677.376)"/></g><g id="change1_14"><path d="M328.13 211.54H329.45V234.394H328.13z" fill="inherit" transform="scale(-1) rotate(-59.935 -386.687 570.197)"/></g><g id="change1_15"><path d="M313.51 240.24H314.827V263.097H313.51z" fill="inherit" transform="rotate(113.866 314.165 251.661)"/></g><g id="change1_16"><path d="M301.98 270.31H303.297V293.164H301.98z" fill="inherit" transform="rotate(107.879 302.645 281.73)"/></g><g id="change1_17"><path d="M293.65 301.44H294.967V324.294H293.65z" fill="inherit" transform="rotate(102.07 294.305 312.88)"/></g><g id="change1_18"><path d="M288.63 333.25H289.947V356.105H288.63z" fill="inherit" transform="rotate(95.849 289.289 344.685)"/></g><g id="change1_19"><path d="M276.17 376.17H299.021V377.486H276.17z" fill="inherit"/></g><g id="change1_20"><path d="M288.64 397.54H289.957V420.394H288.64z" fill="inherit" transform="rotate(83.869 289.287 408.98)"/></g><g id="change1_21"><path d="M305.37 437.78L305.65 439.06 283.3 443.82 283.01 442.52z" fill="inherit"/></g><g id="change1_22"><path d="M313.34 467.74L313.75 469 292.02 476.06 291.6 474.81z" fill="inherit"/></g><g id="change1_23"><path d="M313.58 490.53H314.897V513.3879999999999H313.58z" fill="inherit" transform="rotate(65.814 314.252 501.937)"/></g><g id="change1_24"><path d="M338.42 524.38L339.08 525.51 319.29 536.94 318.62 535.8z" fill="inherit"/></g><g id="change1_25"><path d="M345.72 546.22H347.036V569.077H345.72z" fill="inherit" transform="rotate(53.81 346.366 557.62)"/></g><g id="change1_26"><path d="M366.04 571.27H367.357V594.121H366.04z" fill="inherit" transform="rotate(47.931 366.715 582.717)"/></g><g id="change1_27"><path d="M388.81 594.05H390.127V616.9H388.81z" fill="inherit" transform="rotate(41.875 389.472 605.452)"/></g><g id="change1_28"><path d="M413.83 614.32H415.147V637.173H413.83z" fill="inherit" transform="rotate(35.914 414.482 625.804)"/></g><g id="change1_29"><path d="M440.81 631.84H442.123V654.6890000000001H440.81z" fill="inherit" transform="rotate(29.88 441.481 643.301)"/></g><g id="change1_30"><path d="M469.54 646.44H470.853V669.2900000000001H469.54z" fill="inherit" transform="rotate(23.95 470.161 657.904)"/></g><g id="change1_31"><path d="M499.61 658.01H500.92400000000004V680.86H499.61z" fill="inherit" transform="rotate(17.918 500.273 669.57)"/></g><g id="change1_32"><path d="M530.71 666.29H532.023V689.1419999999999H530.71z" fill="inherit" transform="rotate(11.976 531.474 677.89)"/></g><g id="change1_33"><path d="M562.49 671.33H563.801V694.181H562.49z" fill="inherit" transform="rotate(6.027 563.317 682.983)"/></g><g id="change1_34"><path d="M594.69 673.01H596.0060000000001V695.861H594.69z" fill="inherit"/></g><g id="change1_35"><path d="M626.87 671.28H628.18V694.131H626.87z" fill="inherit" transform="rotate(-5.993 627.357 682.542)"/></g><g id="change1_36"><path d="M658.65 666.26H659.9639999999999V689.111H658.65z" fill="inherit" transform="rotate(-11.97 659.286 677.65)"/></g><g id="change1_37"><path d="M689.76 657.89H691.073V680.745H689.76z" fill="inherit" transform="rotate(-18.071 690.41 669.297)"/></g><g id="change1_38"><path d="M719.82 646.43H721.133V669.2829999999999H719.82z" fill="inherit" transform="rotate(-24.049 720.504 657.889)"/></g><g id="change1_39"><path d="M748.54 631.73H749.857V654.587H748.54z" fill="inherit" transform="rotate(-30.14 749.216 643.187)"/></g><g id="change1_40"><path d="M775.51 614.24H776.822V637.098H775.51z" fill="inherit" transform="rotate(-36.222 776.17 625.682)"/></g><g id="change1_41"><path d="M800.54 593.95H801.8539999999999V616.807H800.54z" fill="inherit" transform="rotate(-42.138 801.245 605.4)"/></g><g id="change1_42"><path d="M823.31 571.14H824.6229999999999V594.001H823.31z" fill="inherit" transform="rotate(-48.226 823.943 582.545)"/></g><g id="change1_43"><path d="M843.6 546.1H844.917V568.956H843.6z" fill="inherit" transform="rotate(-54.049 844.25 557.543)"/></g><g id="change1_44"><path d="M861.14 519.13H862.453V541.986H861.14z" fill="inherit" transform="rotate(-60.12 861.689 530.514)"/></g><g id="change1_45"><path d="M875.74 490.41H877.053V513.269H875.74z" fill="inherit" transform="rotate(-66.046 876.378 501.815)"/></g><g id="change1_46"><path d="M887.26 460.33H888.571V483.188H887.26z" fill="inherit" transform="rotate(-72.308 887.903 471.764)"/></g><g id="change1_47"><path d="M895.59 429.19H896.904V452.049H895.59z" fill="inherit" transform="rotate(-78.164 896.261 440.617)"/></g><g id="change1_48"><path d="M900.63 397.4H901.944V420.26099999999997H900.63z" fill="inherit" transform="rotate(-84.111 901.29 408.834)"/></g><g id="change1_49"><path d="M891.53 376.03H914.387V377.344H891.53z" fill="inherit"/></g><g id="change1_50"><path d="M900.64 333.1H901.9499999999999V355.961H900.64z" fill="inherit" transform="scale(-1) rotate(83.84 383.718 -1003.847)"/></g><g id="change1_51"><path d="M895.57 301.29H896.8810000000001V324.15000000000003H895.57z" fill="inherit" transform="rotate(-102.128 896.263 312.721)"/></g><g id="change1_52"><path d="M887.22 270.17H888.53V293.033H887.22z" fill="inherit" transform="rotate(-108.246 887.874 281.613)"/></g><g id="change1_53"><path d="M875.65 240.12H876.9599999999999V262.983H875.65z" fill="inherit" transform="scale(-1) rotate(65.708 389.476 -1356.842)"/></g><g id="change1_54"><path d="M861.07 211.43H862.38V234.28900000000002H861.07z" fill="inherit" transform="rotate(-120.252 861.749 222.85)"/></g><g id="change1_55"><path d="M843.48 184.4H844.787V207.25900000000001H843.48z" fill="inherit" transform="scale(-1) rotate(53.827 385.797 -1663.01)"/></g><g id="change1_56"><path d="M823.22 159.4H824.5310000000001V182.261H823.22z" fill="inherit" transform="rotate(-132.346 823.842 170.858)"/></g><g id="change1_57"><path d="M800.43 136.63H801.741V159.492H800.43z" fill="inherit" transform="rotate(-138.409 801.115 148.04)"/></g><g id="change1_58"><path d="M775.44 116.36H776.744V139.224H775.44z" fill="inherit" transform="rotate(-144.262 776.085 127.774)"/></g><g id="change1_59"><path d="M748.42 98.841H749.7239999999999V121.701H748.42z" fill="inherit" transform="scale(-1) rotate(29.695 415.952 -2825.448)"/></g><g id="change1_60"><path d="M716.31 106.35L715.11 105.83 724.4 84.941 725.61 85.478z" fill="inherit"/></g><g id="change1_61"><path d="M689.63 72.685H690.9399999999999V95.545H689.63z" fill="inherit" transform="scale(-1) rotate(17.687 540.595 -4436.97)"/></g><g id="change1_62"><path d="M658.53 64.343H659.836V87.206H658.53z" fill="inherit" transform="rotate(-168.35 659.188 75.765)"/></g><g id="change1_63"><path d="M626.72 59.317H628.029V82.181H626.72z" fill="inherit" transform="rotate(-174.384 627.376 70.747)"/></g><g id="change1_64"><path d="M437.21 98.909H445.52V121.768H437.21z" fill="inherit" transform="scale(-1) rotate(-30.021 -411.511 1646.06)"/></g><g id="change1_65"><path d="M324.62 211.55H332.927V234.406H324.62z" fill="inherit" transform="scale(-1) rotate(-60.025 -386.032 569.197)"/></g><g id="change1_66"><path d="M276.17 372.67H299.02700000000004V380.981H276.17z" fill="inherit"/></g><g id="change1_67"><path d="M324.68 519.22H332.991V542.077H324.68z" fill="inherit" transform="rotate(59.987 328.846 530.642)"/></g><g id="change1_68"><path d="M437.3 631.82H445.61400000000003V654.6790000000001H437.3z" fill="inherit" transform="rotate(29.988 441.466 643.224)"/></g><g id="change1_69"><path d="M591.19 673.01H599.4970000000001V695.866H591.19z" fill="inherit"/></g><g id="change1_70"><path d="M745.03 631.72H753.3439999999999V654.5740000000001H745.03z" fill="inherit" transform="rotate(-29.98 749.202 643.152)"/></g><g id="change1_71"><path d="M857.65 519.11H865.9599999999999V541.965H857.65z" fill="inherit" transform="rotate(-59.974 861.81 530.513)"/></g><g id="change1_72"><path d="M891.53 372.54H914.38V380.848H891.53z" fill="inherit"/></g><g id="change1_73"><path d="M857.54 211.4H865.847V234.25300000000001H857.54z" fill="inherit" transform="scale(-1) rotate(60.028 385.69 -1491.647)"/></g><g id="change1_74"><path d="M744.89 98.818H753.1999999999999V121.674H744.89z" fill="inherit" transform="scale(-1) rotate(30.021 411.165 -2793.444)"/></g><g id="change1_75"><path d="M751.71 283.28L839.62 232.52 841.29 235.4 842.59 234.65 836.12 223.44 834.82 224.19 836.48 227.08 748.57 277.83 746.88 274.91 745.57 275.66 752.05 286.87 753.36 286.12z" fill="inherit"/></g><g id="change1_76"><path d="M842.62 234.69L841.31 235.44 842.98 238.33 755.07 289.08 753.38 286.16 752.07 286.91 758.55 298.13 759.85 297.38 758.21 294.52 846.12 243.77 847.78 246.66 849.09 245.9z" fill="inherit"/></g><g id="change1_77"><path d="M879.01 366.93L879.01 370.26 880.51 370.26 880.51 357.32 879.01 357.32 879.01 360.64 777.49 360.64 777.5 357.27 775.99 357.27 775.99 370.22 777.5 370.22 777.49 366.93z" fill="inherit"/></g><g id="change1_78"><path d="M879.01 379.92L879.01 383.25 880.51 383.25 880.51 370.31 879.01 370.31 879.01 373.64 777.49 373.64 777.49 370.26 775.99 370.26 775.99 383.21 777.49 383.21 777.49 379.92z" fill="inherit"/></g><g id="change1_79"><path d="M879.01 396.25L880.51 396.25 880.51 383.3 879.01 383.3 879.01 386.63 777.49 386.63 777.5 383.25 775.99 383.25 775.99 396.2 777.5 396.2 777.5 392.92 879.01 392.92z" fill="inherit"/></g><g id="change1_80"><path d="M849.19 504.43L847.52 507.31 848.83 508.07 855.3 496.86 853.99 496.1 852.33 498.98 764.42 448.23 766.11 445.3 764.8 444.55 758.33 455.76 759.63 456.52 761.28 453.67z" fill="inherit"/></g><g id="change1_81"><path d="M842.69 515.68L841.03 518.56 842.33 519.32 848.81 508.1 847.5 507.35 845.83 510.24 757.92 459.48 759.62 456.56 758.3 455.81 751.83 467.02 753.13 467.77 754.78 464.93z" fill="inherit"/></g><g id="change1_82"><path d="M836.2 526.93L834.53 529.82 835.83 530.57 842.31 519.36 841 518.6 839.33 521.49 751.43 470.73 753.12 467.81 751.81 467.06 745.34 478.27 746.64 479.02 748.29 476.18z" fill="inherit"/></g><g id="change1_83"><path d="M828.03 541.07L829.34 541.82 835.81 530.61 834.5 529.86 832.84 532.74 744.93 481.99 746.62 479.06 745.31 478.31 738.84 489.52 740.14 490.28 741.79 487.43 829.7 538.18z" fill="inherit"/></g><g id="change1_84"><path d="M742.13 133.92L742.89 132.62 731.68 126.15 730.92 127.45 733.8 129.12 683.05 217.03 680.12 215.34 679.37 216.64 690.59 223.12 691.34 221.81 688.5 220.17 739.25 132.26z" fill="inherit"/></g><g id="change1_85"><path d="M318.45 476.84H331.396V478.351H318.45z" fill="inherit" transform="rotate(69.891 324.934 477.616)"/></g><g id="change1_86"><path d="M410.63 601.78H423.625V603.2909999999999H410.63z" fill="inherit" transform="rotate(42.413 417.115 602.537)"/></g><g id="change1_87"><path d="M554.12 659.65L567.1 661.35 566.9 662.84 553.92 661.13z" fill="inherit"/></g><g id="change1_88"><path d="M706.69 639L718.82 634.12 719.38 635.51 707.23 640.4z" fill="inherit"/></g><g id="change1_89"><path d="M476.03 118.05L475.27 116.75 464.06 123.22 464.81 124.53 467.7 122.86 518.46 210.78 515.53 212.46 516.28 213.77 527.5 207.29 526.75 205.99 523.9 207.63 473.15 119.72z" fill="inherit"/></g><g id="change1_90"><path d="M432.34 141.54L507.26 219.12 513.06 215.78 437.93 138.31z" fill="inherit"/></g><g id="change1_91"><path d="m488.93 229.7l-30.695-102.97 0.996-0.58s6.02 19.932 9.471 31.55l21.13 71.477-0.902 0.527z" fill="inherit"/></g><g id="change1_92"><path d="M429.5 139.56H442.45V141.068H429.5z" fill="inherit" transform="rotate(150.009 435.968 140.309)"/></g><g id="change1_93"><path d="M482.7 227.95H495.65V229.458H482.7z" fill="inherit" transform="rotate(150.009 489.186 228.704)"/></g><g id="change1_94"><path d="M502.93 216.28H515.88V217.785H502.93z" fill="inherit" transform="rotate(150.02 509.404 217.029)"/></g><g id="change1_95"><path d="M452.31 126.38H465.257V127.88799999999999H452.31z" fill="inherit" transform="scale(-1) rotate(-30.009 -474.348 1711.793)"/></g><g id="change1_96"><path d="M614.94 93.03L614.94 91.521 601.99 91.525 601.99 93.033 605.32 93.033 605.34 194.54 601.96 194.54 601.96 196.05 614.91 196.04 614.91 194.54 611.62 194.54 611.6 93.03z" fill="inherit"/></g><g id="change1_97"><path d="M627.91 93.03L627.91 91.521 614.97 91.525 614.96 93.033 618.3 93.033 618.32 194.54 614.94 194.54 614.94 196.05 627.88 196.04 627.88 194.54 624.6 194.54 624.58 93.03z" fill="inherit"/></g><g id="change1_98"><path d="M565.36 91.534L591.48 196.17 598.17 196.17 571.81 91.531z" fill="inherit"/></g><g id="change1_99"><path d="m570.3 196.18l24.885-104.53 1.157-3e-3s-4.752 20.271-7.568 32.061l-17.427 72.471-1.047-3e-3z" fill="inherit"/></g><g id="change1_100"><path d="M562.64 91.531H575.59V93.039H562.64z" fill="inherit"/></g><g id="change1_101"><path d="M564.54 194.67H577.49V196.17499999999998H564.54z" fill="inherit"/></g><g id="change1_102"><path d="M587.91 194.67H600.855V196.17399999999998H587.91z" fill="inherit"/></g><g id="change1_103"><path d="M589 91.525H601.951V93.03H589z" fill="inherit"/></g><g id="change1_104"><path d="M339.81 248.89L443.48 278.62 446.82 272.83 343.03 243.31z" fill="inherit"/></g><g id="change1_105"><path d="m432.9 296.95l-78.067-73.831 0.577-1s15.18 14.251 23.982 22.59l54.034 51.332-0.526 0.909z" fill="inherit"/></g><g id="change1_106"><path d="M335.86 245.28H348.807V246.785H335.86z" fill="inherit" transform="rotate(119.993 342.33 246.033)"/></g><g id="change1_107"><path d="M426.13 295.22H439.078V296.73100000000005H426.13z" fill="inherit" transform="rotate(119.993 432.597 295.979)"/></g><g id="change1_108"><path d="M437.81 274.97H450.76V276.47400000000005H437.81z" fill="inherit" transform="rotate(120.013 444.287 275.713)"/></g><g id="change1_109"><path d="M349.04 222.45H361.988V223.95499999999998H349.04z" fill="inherit" transform="rotate(119.993 355.51 223.198)"/></g><g id="change1_110"><path d="M311.42 389.91L309.92 389.91 309.92 402.86 311.42 402.86 311.42 399.53 412.93 399.53 412.93 402.91 414.44 402.91 414.44 389.96 412.93 389.96 412.93 393.24 311.42 393.24z" fill="inherit"/></g><g id="change1_111"><path d="M309.92 387.19L414.56 361.1 414.56 354.41 309.92 380.74z" fill="inherit"/></g><g id="change1_112"><path d="m414.56 382.27l-104.52-24.904v-1.156s20.273 4.755 32.061 7.573l72.464 17.44v1.047z" fill="inherit"/></g><g id="change1_113"><path d="M309.92 376.96H311.42400000000004V389.907H309.92z" fill="inherit"/></g><g id="change1_114"><path d="M413.06 375.09H414.565V388.037H413.06z" fill="inherit"/></g><g id="change1_115"><path d="M413.06 351.72H414.565V364.66700000000003H413.06z" fill="inherit"/></g><g id="change1_116"><path d="M309.92 350.61H311.42400000000004V363.557H309.92z" fill="inherit"/></g><g id="change1_117"><path d="M354.36 527.07L353.06 527.82 359.53 539.04 360.83 538.28 359.17 535.4 447.07 484.65 448.77 487.57 450.08 486.81 443.6 475.6 442.29 476.35 443.94 479.2 356.03 529.96z" fill="inherit"/></g><g id="change1_118"><path d="M360.86 538.32L359.56 539.08 366.02 550.29 367.33 549.53 365.66 546.65 453.58 495.9 455.26 498.82 456.57 498.07 450.09 486.85 448.79 487.61 450.43 490.46 362.52 541.21z" fill="inherit"/></g><g id="change1_119"><path d="M367.36 549.57L366.05 550.33 372.52 561.54 373.82 560.78 372.16 557.9 460.07 507.15 461.76 510.07 463.06 509.32 456.59 498.1 455.29 498.86 456.93 501.7 369.02 552.46z" fill="inherit"/></g><g id="change1_120"><path d="M351.51 525.15L429.09 450.23 422.09 448.15 348.29 519.57z" fill="inherit"/></g><g id="change1_121"><path d="m351.62 525.09l-1.254-2.173 73.054-74.063-98.816 29.441-0.577-1.001s19.929-6.016 31.55-9.47l71.473-21.131 2.038 3.533-56.473 54.486c-8.68 8.377-20.995 20.378-20.995 20.378z" fill="inherit"/></g><g id="change1_122"><path d="M344.02 521.06H356.965V522.5649999999999H344.02z" fill="inherit" transform="rotate(60.007 350.483 521.78)"/></g><g id="change1_123"><path d="M617.98 660.49L617.98 662 630.93 662 630.93 660.49 627.6 660.49 627.6 558.98 630.98 558.98 630.98 557.47 618.03 557.47 618.03 558.98 621.32 558.98 621.32 660.49z" fill="inherit"/></g><g id="change1_124"><path d="M614.9 662L588.8 557.35 583.5 562.37 608.44 662z" fill="inherit"/></g><g id="change1_125"><path d="m614.9 661.87l-2.518 3e-3 -27.61-100.3-23.916 100.3-1.157-3e-3s4.759-20.271 7.574-32.064l17.439-72.458h4.079l18.95 76.147c2.921 11.709 7.159 28.375 7.159 28.375z" fill="inherit"/></g><g id="change1_126"><path d="M605.04 660.49H617.9889999999999V661.998H605.04z" fill="inherit"/></g><g id="change1_127"><path d="M467.36 630.61L466.61 631.91 477.82 638.38 478.57 637.08 475.69 635.41 526.45 547.5 529.37 549.19 530.12 547.88 518.91 541.41 518.16 542.72 521 544.36 470.24 632.27z" fill="inherit"/></g><g id="change1_128"><path d="M478.61 637.1L477.86 638.41 489.07 644.88 489.82 643.57 486.94 641.91 537.7 554 540.62 555.68 541.38 554.38 530.16 547.91 529.4 549.21 532.25 550.85 481.5 638.77z" fill="inherit"/></g><g id="change1_129"><path d="M463.94 630.36L493.66 526.69 486.56 528.39 458.35 627.14z" fill="inherit"/></g><g id="change1_130"><path d="m464 630.26l-2.179-1.257 26.236-100.66-70.856 74.903-1.003-0.58s14.255-15.179 22.587-23.979l51.335-54.034 3.533 2.034-21.669 75.427c-3.326 11.593-7.984 28.146-7.984 28.146z" fill="inherit"/></g><g id="change1_131"><path d="M454.9 627.3H467.846V628.805H454.9z" fill="inherit" transform="rotate(30.006 461.369 628.082)"/></g><g id="change1_132"><path d="M760.45 610.76L685.53 533.18 683.46 540.17 754.87 613.98z" fill="inherit"/></g><g id="change1_133"><path d="m760.4 610.65l-2.178 1.254-74.063-73.054 29.439 98.813-0.996 0.583s-6.02-19.936-9.471-31.55l-21.129-71.476 3.527-2.034 54.488 56.473c8.377 8.677 20.383 20.991 20.383 20.991z" fill="inherit"/></g><g id="change1_134"><path d="M750.62 611.04H763.565V612.545H750.62z" fill="inherit" transform="rotate(-30 757.055 611.81)"/></g><circle cx="595.28" cy="376.76" fill="none" r="15.991" stroke="#f5a900" stroke-miterlimit="10" stroke-width="0.348"/><g id="change1_135"><circle cx="595.28" cy="376.76" fill="inherit" r="4.546"/></g><g id="change1_136"><path d="M663.33 117.81L589.92 407.82 587.3 407.17 660.72 117.16z" fill="inherit" stroke="#f5a900" stroke-miterlimit="10" stroke-width="0.5"/></g><g id="change1_1" stroke="#f5a900" stroke-miterlimit="10" stroke-width="0.5"><path d="M725.58 409.29H738.528V410.798H725.58z" fill="inherit" transform="rotate(-76.043 732.062 410.034)"/><path d="M731.01 411.16L564.57 370.55 565.22 367.93 731.66 408.54z" fill="inherit"/></g><g id="change1_137"><path d="m668.23 141.38h0.207s-7.672-17.048-1.758-41.516c-0.029-0.075-0.982 3.345-2.293 8.201 1.27-4.753 2.201-8.27 2.15-8.239-7.27 24.092-22.521 34.92-22.521 34.92l0.076 0.047c-3.102 2.119-5.537 5.264-6.596 9.179-2.381 8.769 2.795 17.816 11.561 20.201 8.771 2.374 17.813-2.809 20.195-11.568 1.057-3.908 0.563-7.833-1.021-11.225zm-10.426-8.928c-0.01-3e-3 0.443-1.687 1.137-4.251-0.4 1.476-0.779 2.918-1.137 4.251z" fill="inherit"/></g><g id="change1_138"><path d="m725.51 420.86v0.207s17.051-7.668 41.52-1.756c0.074-0.024-3.346-0.978-8.201-2.291 4.752 1.272 8.27 2.203 8.234 2.153-24.092-7.273-34.92-22.524-34.92-22.524l-0.047 0.075c-2.119-3.101-5.264-5.536-9.178-6.596-8.771-2.38-17.816 2.793-20.203 11.559-2.375 8.771 2.811 17.813 11.568 20.195 3.911 1.06 7.835 0.561 11.227-1.022zm8.928-10.423c6e-3 -9e-3 1.689 0.445 4.252 1.139-1.477-0.406-2.92-0.779-4.252-1.139z" fill="inherit"/></g></svg>